# xmcd
#
# Track frame offsets:
#	150
#	16473
#	34952
#	52405
#	71269
#	88289
#
# Disc length: 1394 seconds
#
# Revision: 0
# Processed by: cddbd v1.5.2PL0 Copyright (c) Steve Scherf et al.
# Submitted via: dBpowerAMP V4.0
#
DISCID=53057006
DTITLE=Revelation Theory - Revelation Theory
DYEAR=2004
DGENRE=Rock
TTITLE0=Deep Six
TTITLE1=World To Burn
TTITLE2=Over It All
TTITLE3=Fade
TTITLE4=Loathe
TTITLE5=Undone
EXTD=
EXTT0=
EXTT1=
EXTT2=
EXTT3=
EXTT4=
EXTT5=
PLAYORDER=
